<mxfile host="app.diagrams.net" modified="2024-04-16T05:18:28.286Z" agent="Mozilla/5.0 (Windows NT 10.0; Win64; x64) AppleWebKit/537.36 (KHTML, like Gecko) Chrome/123.0.0.0 Safari/537.36" etag="O6p2E8EdZTwcNR_Pch5s" version="24.2.5" type="github">
  <diagram name="第 1 页" id="us2luh2YcuJinGLGEc4r">
    <mxGraphModel dx="1434" dy="746" grid="1" gridSize="10" guides="1" tooltips="1" connect="1" arrows="1" fold="1" page="1" pageScale="1" pageWidth="827" pageHeight="1169" math="0" shadow="0">
      <root>
        <mxCell id="0" />
        <mxCell id="1" parent="0" />
        <mxCell id="8hP-wwGZyzVtUrlT6sfT-1" value="" style="shape=parallelogram;perimeter=parallelogramPerimeter;whiteSpace=wrap;html=1;fixedSize=1;strokeColor=#000000;strokeWidth=2;" vertex="1" parent="1">
          <mxGeometry x="10" y="240" width="80" height="40" as="geometry" />
        </mxCell>
        <mxCell id="8hP-wwGZyzVtUrlT6sfT-14" value="" style="shape=parallelogram;perimeter=parallelogramPerimeter;whiteSpace=wrap;html=1;fixedSize=1;strokeColor=#000000;strokeWidth=2;" vertex="1" parent="1">
          <mxGeometry x="70" y="240" width="80" height="40" as="geometry" />
        </mxCell>
        <mxCell id="8hP-wwGZyzVtUrlT6sfT-15" value="" style="shape=parallelogram;perimeter=parallelogramPerimeter;whiteSpace=wrap;html=1;fixedSize=1;strokeColor=#000000;strokeWidth=2;" vertex="1" parent="1">
          <mxGeometry x="130" y="240" width="80" height="40" as="geometry" />
        </mxCell>
        <mxCell id="8hP-wwGZyzVtUrlT6sfT-57" style="edgeStyle=orthogonalEdgeStyle;rounded=0;orthogonalLoop=1;jettySize=auto;html=1;entryX=0.5;entryY=1;entryDx=0;entryDy=0;strokeColor=#000000;strokeWidth=2;" edge="1" parent="1" source="8hP-wwGZyzVtUrlT6sfT-16" target="8hP-wwGZyzVtUrlT6sfT-28">
          <mxGeometry relative="1" as="geometry">
            <Array as="points">
              <mxPoint x="230" y="220" />
              <mxPoint x="470" y="220" />
            </Array>
          </mxGeometry>
        </mxCell>
        <mxCell id="8hP-wwGZyzVtUrlT6sfT-16" value="" style="shape=parallelogram;perimeter=parallelogramPerimeter;whiteSpace=wrap;html=1;fixedSize=1;strokeColor=#000000;strokeWidth=2;fillColor=#A8DADC;" vertex="1" parent="1">
          <mxGeometry x="190" y="240" width="80" height="40" as="geometry" />
        </mxCell>
        <mxCell id="8hP-wwGZyzVtUrlT6sfT-17" value="" style="shape=parallelogram;perimeter=parallelogramPerimeter;whiteSpace=wrap;html=1;fixedSize=1;strokeColor=#000000;strokeWidth=2;" vertex="1" parent="1">
          <mxGeometry x="250" y="240" width="80" height="40" as="geometry" />
        </mxCell>
        <mxCell id="8hP-wwGZyzVtUrlT6sfT-18" value="" style="shape=parallelogram;perimeter=parallelogramPerimeter;whiteSpace=wrap;html=1;fixedSize=1;strokeColor=#000000;strokeWidth=2;" vertex="1" parent="1">
          <mxGeometry x="310" y="240" width="80" height="40" as="geometry" />
        </mxCell>
        <mxCell id="8hP-wwGZyzVtUrlT6sfT-19" value="" style="shape=parallelogram;perimeter=parallelogramPerimeter;whiteSpace=wrap;html=1;fixedSize=1;strokeColor=#000000;strokeWidth=2;" vertex="1" parent="1">
          <mxGeometry x="370" y="240" width="80" height="40" as="geometry" />
        </mxCell>
        <mxCell id="8hP-wwGZyzVtUrlT6sfT-58" style="edgeStyle=orthogonalEdgeStyle;rounded=0;orthogonalLoop=1;jettySize=auto;html=1;entryX=0.5;entryY=1;entryDx=0;entryDy=0;strokeColor=#000000;strokeWidth=2;fontSize=16;" edge="1" parent="1" source="8hP-wwGZyzVtUrlT6sfT-20" target="8hP-wwGZyzVtUrlT6sfT-28">
          <mxGeometry relative="1" as="geometry" />
        </mxCell>
        <mxCell id="8hP-wwGZyzVtUrlT6sfT-20" value="" style="shape=parallelogram;perimeter=parallelogramPerimeter;whiteSpace=wrap;html=1;fixedSize=1;strokeColor=#000000;strokeWidth=2;fillColor=#A8DADC;" vertex="1" parent="1">
          <mxGeometry x="430" y="240" width="80" height="40" as="geometry" />
        </mxCell>
        <mxCell id="8hP-wwGZyzVtUrlT6sfT-21" value="" style="shape=parallelogram;perimeter=parallelogramPerimeter;whiteSpace=wrap;html=1;fixedSize=1;strokeColor=#000000;strokeWidth=2;" vertex="1" parent="1">
          <mxGeometry x="10" y="160" width="80" height="40" as="geometry" />
        </mxCell>
        <mxCell id="8hP-wwGZyzVtUrlT6sfT-22" value="" style="shape=parallelogram;perimeter=parallelogramPerimeter;whiteSpace=wrap;html=1;fixedSize=1;strokeColor=#000000;strokeWidth=2;" vertex="1" parent="1">
          <mxGeometry x="70" y="160" width="80" height="40" as="geometry" />
        </mxCell>
        <mxCell id="8hP-wwGZyzVtUrlT6sfT-23" value="" style="shape=parallelogram;perimeter=parallelogramPerimeter;whiteSpace=wrap;html=1;fixedSize=1;strokeColor=#000000;strokeWidth=2;" vertex="1" parent="1">
          <mxGeometry x="130" y="160" width="80" height="40" as="geometry" />
        </mxCell>
        <mxCell id="8hP-wwGZyzVtUrlT6sfT-24" value="" style="shape=parallelogram;perimeter=parallelogramPerimeter;whiteSpace=wrap;html=1;fixedSize=1;strokeColor=#000000;strokeWidth=2;" vertex="1" parent="1">
          <mxGeometry x="190" y="160" width="80" height="40" as="geometry" />
        </mxCell>
        <mxCell id="8hP-wwGZyzVtUrlT6sfT-25" value="" style="shape=parallelogram;perimeter=parallelogramPerimeter;whiteSpace=wrap;html=1;fixedSize=1;strokeColor=#000000;strokeWidth=2;" vertex="1" parent="1">
          <mxGeometry x="250" y="160" width="80" height="40" as="geometry" />
        </mxCell>
        <mxCell id="8hP-wwGZyzVtUrlT6sfT-26" value="" style="shape=parallelogram;perimeter=parallelogramPerimeter;whiteSpace=wrap;html=1;fixedSize=1;strokeColor=#000000;strokeWidth=2;" vertex="1" parent="1">
          <mxGeometry x="310" y="160" width="80" height="40" as="geometry" />
        </mxCell>
        <mxCell id="8hP-wwGZyzVtUrlT6sfT-27" value="" style="shape=parallelogram;perimeter=parallelogramPerimeter;whiteSpace=wrap;html=1;fixedSize=1;strokeColor=#000000;strokeWidth=2;" vertex="1" parent="1">
          <mxGeometry x="370" y="160" width="80" height="40" as="geometry" />
        </mxCell>
        <mxCell id="8hP-wwGZyzVtUrlT6sfT-28" value="" style="shape=parallelogram;perimeter=parallelogramPerimeter;whiteSpace=wrap;html=1;fixedSize=1;strokeColor=#000000;strokeWidth=2;fillColor=#A8DADC;" vertex="1" parent="1">
          <mxGeometry x="430" y="160" width="80" height="40" as="geometry" />
        </mxCell>
        <mxCell id="8hP-wwGZyzVtUrlT6sfT-29" value="" style="shape=parallelogram;perimeter=parallelogramPerimeter;whiteSpace=wrap;html=1;fixedSize=1;strokeColor=#000000;strokeWidth=2;" vertex="1" parent="1">
          <mxGeometry x="10" y="320" width="80" height="40" as="geometry" />
        </mxCell>
        <mxCell id="8hP-wwGZyzVtUrlT6sfT-55" style="edgeStyle=orthogonalEdgeStyle;rounded=0;orthogonalLoop=1;jettySize=auto;html=1;entryX=0.5;entryY=1;entryDx=0;entryDy=0;strokeColor=#000000;strokeWidth=2;" edge="1" parent="1" source="8hP-wwGZyzVtUrlT6sfT-30" target="8hP-wwGZyzVtUrlT6sfT-16">
          <mxGeometry relative="1" as="geometry">
            <Array as="points">
              <mxPoint x="110" y="300" />
              <mxPoint x="230" y="300" />
            </Array>
          </mxGeometry>
        </mxCell>
        <mxCell id="8hP-wwGZyzVtUrlT6sfT-30" value="" style="shape=parallelogram;perimeter=parallelogramPerimeter;whiteSpace=wrap;html=1;fixedSize=1;strokeColor=#000000;strokeWidth=2;fillColor=#A8DADC;" vertex="1" parent="1">
          <mxGeometry x="70" y="320" width="80" height="40" as="geometry" />
        </mxCell>
        <mxCell id="8hP-wwGZyzVtUrlT6sfT-31" value="" style="shape=parallelogram;perimeter=parallelogramPerimeter;whiteSpace=wrap;html=1;fixedSize=1;strokeColor=#000000;strokeWidth=2;" vertex="1" parent="1">
          <mxGeometry x="130" y="320" width="80" height="40" as="geometry" />
        </mxCell>
        <mxCell id="8hP-wwGZyzVtUrlT6sfT-56" style="edgeStyle=orthogonalEdgeStyle;rounded=0;orthogonalLoop=1;jettySize=auto;html=1;strokeColor=#000000;strokeWidth=2;" edge="1" parent="1" source="8hP-wwGZyzVtUrlT6sfT-32">
          <mxGeometry relative="1" as="geometry">
            <mxPoint x="230" y="280" as="targetPoint" />
          </mxGeometry>
        </mxCell>
        <mxCell id="8hP-wwGZyzVtUrlT6sfT-32" value="" style="shape=parallelogram;perimeter=parallelogramPerimeter;whiteSpace=wrap;html=1;fixedSize=1;strokeColor=#000000;strokeWidth=2;fillColor=#A8DADC;" vertex="1" parent="1">
          <mxGeometry x="190" y="320" width="80" height="40" as="geometry" />
        </mxCell>
        <mxCell id="8hP-wwGZyzVtUrlT6sfT-33" value="" style="shape=parallelogram;perimeter=parallelogramPerimeter;whiteSpace=wrap;html=1;fixedSize=1;strokeColor=#000000;strokeWidth=2;" vertex="1" parent="1">
          <mxGeometry x="250" y="320" width="80" height="40" as="geometry" />
        </mxCell>
        <mxCell id="8hP-wwGZyzVtUrlT6sfT-53" style="edgeStyle=orthogonalEdgeStyle;rounded=0;orthogonalLoop=1;jettySize=auto;html=1;entryX=0.5;entryY=1;entryDx=0;entryDy=0;strokeColor=#000000;strokeWidth=2;" edge="1" parent="1" source="8hP-wwGZyzVtUrlT6sfT-34" target="8hP-wwGZyzVtUrlT6sfT-20">
          <mxGeometry relative="1" as="geometry">
            <Array as="points">
              <mxPoint x="350" y="300" />
              <mxPoint x="470" y="300" />
            </Array>
          </mxGeometry>
        </mxCell>
        <mxCell id="8hP-wwGZyzVtUrlT6sfT-34" value="" style="shape=parallelogram;perimeter=parallelogramPerimeter;whiteSpace=wrap;html=1;fixedSize=1;strokeColor=#000000;strokeWidth=2;fillColor=#A8DADC;" vertex="1" parent="1">
          <mxGeometry x="310" y="320" width="80" height="40" as="geometry" />
        </mxCell>
        <mxCell id="8hP-wwGZyzVtUrlT6sfT-35" value="" style="shape=parallelogram;perimeter=parallelogramPerimeter;whiteSpace=wrap;html=1;fixedSize=1;strokeColor=#000000;strokeWidth=2;" vertex="1" parent="1">
          <mxGeometry x="370" y="320" width="80" height="40" as="geometry" />
        </mxCell>
        <mxCell id="8hP-wwGZyzVtUrlT6sfT-54" style="edgeStyle=orthogonalEdgeStyle;rounded=0;orthogonalLoop=1;jettySize=auto;html=1;strokeColor=#000000;strokeWidth=2;fontSize=16;" edge="1" parent="1" source="8hP-wwGZyzVtUrlT6sfT-36">
          <mxGeometry relative="1" as="geometry">
            <mxPoint x="470" y="280" as="targetPoint" />
          </mxGeometry>
        </mxCell>
        <mxCell id="8hP-wwGZyzVtUrlT6sfT-36" value="" style="shape=parallelogram;perimeter=parallelogramPerimeter;whiteSpace=wrap;html=1;fixedSize=1;strokeColor=#000000;strokeWidth=2;fillColor=#A8DADC;" vertex="1" parent="1">
          <mxGeometry x="430" y="320" width="80" height="40" as="geometry" />
        </mxCell>
        <mxCell id="8hP-wwGZyzVtUrlT6sfT-52" style="edgeStyle=orthogonalEdgeStyle;rounded=0;orthogonalLoop=1;jettySize=auto;html=1;entryX=0.5;entryY=1;entryDx=0;entryDy=0;strokeColor=#000000;strokeWidth=2;" edge="1" parent="1" source="8hP-wwGZyzVtUrlT6sfT-37" target="8hP-wwGZyzVtUrlT6sfT-30">
          <mxGeometry relative="1" as="geometry" />
        </mxCell>
        <mxCell id="8hP-wwGZyzVtUrlT6sfT-37" value="" style="shape=parallelogram;perimeter=parallelogramPerimeter;whiteSpace=wrap;html=1;fixedSize=1;strokeColor=#000000;strokeWidth=2;fillColor=#A8DADC;" vertex="1" parent="1">
          <mxGeometry x="10" y="400" width="80" height="40" as="geometry" />
        </mxCell>
        <mxCell id="8hP-wwGZyzVtUrlT6sfT-51" style="edgeStyle=orthogonalEdgeStyle;rounded=0;orthogonalLoop=1;jettySize=auto;html=1;entryX=0.5;entryY=1;entryDx=0;entryDy=0;strokeColor=#000000;strokeWidth=2;" edge="1" parent="1" source="8hP-wwGZyzVtUrlT6sfT-38" target="8hP-wwGZyzVtUrlT6sfT-30">
          <mxGeometry relative="1" as="geometry" />
        </mxCell>
        <mxCell id="8hP-wwGZyzVtUrlT6sfT-38" value="" style="shape=parallelogram;perimeter=parallelogramPerimeter;whiteSpace=wrap;html=1;fixedSize=1;strokeColor=#000000;strokeWidth=2;fillColor=#A8DADC;" vertex="1" parent="1">
          <mxGeometry x="70" y="400" width="80" height="40" as="geometry" />
        </mxCell>
        <mxCell id="8hP-wwGZyzVtUrlT6sfT-50" style="edgeStyle=orthogonalEdgeStyle;rounded=0;orthogonalLoop=1;jettySize=auto;html=1;entryX=0.5;entryY=1;entryDx=0;entryDy=0;strokeColor=#000000;strokeWidth=2;" edge="1" parent="1" source="8hP-wwGZyzVtUrlT6sfT-39" target="8hP-wwGZyzVtUrlT6sfT-32">
          <mxGeometry relative="1" as="geometry" />
        </mxCell>
        <mxCell id="8hP-wwGZyzVtUrlT6sfT-39" value="" style="shape=parallelogram;perimeter=parallelogramPerimeter;whiteSpace=wrap;html=1;fixedSize=1;strokeColor=#000000;strokeWidth=2;fillColor=#A8DADC;" vertex="1" parent="1">
          <mxGeometry x="130" y="400" width="80" height="40" as="geometry" />
        </mxCell>
        <mxCell id="8hP-wwGZyzVtUrlT6sfT-49" style="edgeStyle=orthogonalEdgeStyle;rounded=0;orthogonalLoop=1;jettySize=auto;html=1;entryX=0.5;entryY=1;entryDx=0;entryDy=0;strokeColor=#000000;strokeWidth=2;" edge="1" parent="1" source="8hP-wwGZyzVtUrlT6sfT-40" target="8hP-wwGZyzVtUrlT6sfT-32">
          <mxGeometry relative="1" as="geometry" />
        </mxCell>
        <mxCell id="8hP-wwGZyzVtUrlT6sfT-40" value="" style="shape=parallelogram;perimeter=parallelogramPerimeter;whiteSpace=wrap;html=1;fixedSize=1;strokeColor=#000000;strokeWidth=2;fillColor=#A8DADC;" vertex="1" parent="1">
          <mxGeometry x="190" y="400" width="80" height="40" as="geometry" />
        </mxCell>
        <mxCell id="8hP-wwGZyzVtUrlT6sfT-48" style="edgeStyle=orthogonalEdgeStyle;rounded=0;orthogonalLoop=1;jettySize=auto;html=1;entryX=0.5;entryY=1;entryDx=0;entryDy=0;strokeColor=#000000;strokeWidth=2;" edge="1" parent="1" source="8hP-wwGZyzVtUrlT6sfT-41" target="8hP-wwGZyzVtUrlT6sfT-34">
          <mxGeometry relative="1" as="geometry" />
        </mxCell>
        <mxCell id="8hP-wwGZyzVtUrlT6sfT-41" value="" style="shape=parallelogram;perimeter=parallelogramPerimeter;whiteSpace=wrap;html=1;fixedSize=1;strokeColor=#000000;strokeWidth=2;fillColor=#A8DADC;" vertex="1" parent="1">
          <mxGeometry x="250" y="400" width="80" height="40" as="geometry" />
        </mxCell>
        <mxCell id="8hP-wwGZyzVtUrlT6sfT-47" style="edgeStyle=orthogonalEdgeStyle;rounded=0;orthogonalLoop=1;jettySize=auto;html=1;entryX=0.5;entryY=1;entryDx=0;entryDy=0;strokeColor=#000000;strokeWidth=2;" edge="1" parent="1" source="8hP-wwGZyzVtUrlT6sfT-42" target="8hP-wwGZyzVtUrlT6sfT-34">
          <mxGeometry relative="1" as="geometry" />
        </mxCell>
        <mxCell id="8hP-wwGZyzVtUrlT6sfT-42" value="" style="shape=parallelogram;perimeter=parallelogramPerimeter;whiteSpace=wrap;html=1;fixedSize=1;strokeColor=#000000;strokeWidth=2;fillColor=#A8DADC;" vertex="1" parent="1">
          <mxGeometry x="310" y="400" width="80" height="40" as="geometry" />
        </mxCell>
        <mxCell id="8hP-wwGZyzVtUrlT6sfT-46" style="edgeStyle=orthogonalEdgeStyle;rounded=0;orthogonalLoop=1;jettySize=auto;html=1;entryX=0.5;entryY=1;entryDx=0;entryDy=0;strokeColor=#000000;strokeWidth=2;" edge="1" parent="1" source="8hP-wwGZyzVtUrlT6sfT-43" target="8hP-wwGZyzVtUrlT6sfT-36">
          <mxGeometry relative="1" as="geometry" />
        </mxCell>
        <mxCell id="8hP-wwGZyzVtUrlT6sfT-43" value="" style="shape=parallelogram;perimeter=parallelogramPerimeter;whiteSpace=wrap;html=1;fixedSize=1;strokeColor=#000000;strokeWidth=2;fillColor=#A8DADC;" vertex="1" parent="1">
          <mxGeometry x="370" y="400" width="80" height="40" as="geometry" />
        </mxCell>
        <mxCell id="8hP-wwGZyzVtUrlT6sfT-45" style="edgeStyle=orthogonalEdgeStyle;rounded=0;orthogonalLoop=1;jettySize=auto;html=1;entryX=0.5;entryY=1;entryDx=0;entryDy=0;strokeColor=#000000;strokeWidth=2;fontSize=16;" edge="1" parent="1" source="8hP-wwGZyzVtUrlT6sfT-44" target="8hP-wwGZyzVtUrlT6sfT-36">
          <mxGeometry relative="1" as="geometry" />
        </mxCell>
        <mxCell id="8hP-wwGZyzVtUrlT6sfT-44" value="" style="shape=parallelogram;perimeter=parallelogramPerimeter;whiteSpace=wrap;html=1;fixedSize=1;strokeColor=#000000;strokeWidth=2;labelBackgroundColor=none;fillColor=#A8DADC;" vertex="1" parent="1">
          <mxGeometry x="430" y="400" width="80" height="40" as="geometry" />
        </mxCell>
        <mxCell id="8hP-wwGZyzVtUrlT6sfT-59" value="Input" style="text;html=1;align=center;verticalAlign=middle;resizable=0;points=[];autosize=1;strokeColor=none;fillColor=none;fontSize=16;" vertex="1" parent="1">
          <mxGeometry x="520" y="410" width="60" height="30" as="geometry" />
        </mxCell>
        <mxCell id="8hP-wwGZyzVtUrlT6sfT-60" value="Dilation = 1" style="text;html=1;align=center;verticalAlign=middle;resizable=0;points=[];autosize=1;strokeColor=none;fillColor=none;fontSize=16;" vertex="1" parent="1">
          <mxGeometry x="520" y="370" width="100" height="30" as="geometry" />
        </mxCell>
        <mxCell id="8hP-wwGZyzVtUrlT6sfT-61" value="Hidden Layer" style="text;html=1;align=center;verticalAlign=middle;resizable=0;points=[];autosize=1;strokeColor=none;fillColor=none;fontSize=16;" vertex="1" parent="1">
          <mxGeometry x="520" y="330" width="120" height="30" as="geometry" />
        </mxCell>
        <mxCell id="8hP-wwGZyzVtUrlT6sfT-62" value="Hidden Layer" style="text;html=1;align=center;verticalAlign=middle;resizable=0;points=[];autosize=1;strokeColor=none;fillColor=none;fontSize=16;" vertex="1" parent="1">
          <mxGeometry x="520" y="250" width="120" height="30" as="geometry" />
        </mxCell>
        <mxCell id="8hP-wwGZyzVtUrlT6sfT-63" value="Dilation = 2" style="text;html=1;align=center;verticalAlign=middle;resizable=0;points=[];autosize=1;strokeColor=none;fillColor=none;fontSize=16;" vertex="1" parent="1">
          <mxGeometry x="520" y="290" width="100" height="30" as="geometry" />
        </mxCell>
        <mxCell id="8hP-wwGZyzVtUrlT6sfT-64" value="Dilation = 4" style="text;html=1;align=center;verticalAlign=middle;resizable=0;points=[];autosize=1;strokeColor=none;fillColor=none;fontSize=16;" vertex="1" parent="1">
          <mxGeometry x="520" y="210" width="100" height="30" as="geometry" />
        </mxCell>
        <mxCell id="8hP-wwGZyzVtUrlT6sfT-65" value="Output" style="text;html=1;align=center;verticalAlign=middle;resizable=0;points=[];autosize=1;strokeColor=none;fillColor=none;fontSize=16;" vertex="1" parent="1">
          <mxGeometry x="520" y="170" width="70" height="30" as="geometry" />
        </mxCell>
      </root>
    </mxGraphModel>
  </diagram>
</mxfile>
